<?xml version="1.0" standalone="no"?>
<!DOCTYPE svg PUBLIC "-//W3C//DTD SVG 20010904//EN"
 "http://www.w3.org/TR/2001/REC-SVG-20010904/DTD/svg10.dtd">
<svg version="1.0" xmlns="http://www.w3.org/2000/svg"
 width="165.000000pt" height="35.000000pt" viewBox="0 0 165.000000 35.000000"
 preserveAspectRatio="xMidYMid meet">

<g transform="translate(0.000000,35.000000) scale(0.100000,-0.100000)"
fill="#000000" stroke="none">
<path d="M38 319 c-16 -9 -18 -27 -18 -144 0 -123 2 -135 19 -145 12 -6 98
-10 210 -10 159 0 192 3 205 16 23 23 23 255 0 278 -13 14 -46 16 -207 16
-112 0 -199 -5 -209 -11z m412 -144 l0 -135 -207 2 -208 3 -3 119 c-1 66 0
126 2 133 4 10 51 13 211 13 l205 0 0 -135z"/>
<path d="M289 249 c-25 -9 -49 -45 -49 -74 0 -52 52 -90 101 -73 27 9 54 52
44 69 -10 16 -65 11 -65 -6 0 -8 7 -15 15 -15 22 0 18 -18 -6 -25 -45 -15 -78
55 -43 90 16 16 28 16 67 0 12 -5 17 -2 17 9 0 13 -42 40 -53 35 -1 0 -14 -5
-28 -10z"/>
<path d="M110 245 c0 -2 9 -19 19 -36 l19 -32 -24 -38 c-18 -29 -21 -39 -10
-39 8 0 23 12 33 26 l19 25 14 -25 c7 -14 19 -26 27 -26 17 0 17 3 -7 43 l-21
35 22 36 c18 30 18 36 5 36 -8 0 -21 -10 -27 -22 l-12 -22 -17 22 c-16 20 -40
30 -40 17z"/>
<path d="M513 323 c-10 -3 -13 -43 -13 -148 0 -121 2 -144 16 -149 28 -11
1074 -7 1095 4 17 10 19 22 19 145 0 123 -2 135 -19 145 -20 10 -1073 14
-1098 3z m70 -95 l15 -23 26 24 c34 32 44 20 16 -19 l-23 -32 22 -28 c11 -16
21 -34 21 -40 0 -19 -19 -10 -37 16 l-17 26 -22 -26 c-21 -24 -44 -34 -44 -20
0 3 10 20 22 37 l22 30 -22 39 c-17 29 -19 38 -9 38 8 0 21 -10 30 -22z m137
-53 c0 -60 -3 -75 -15 -75 -12 0 -15 15 -15 75 0 60 3 75 15 75 12 0 15 -15
15 -75z m99 62 c15 -19 3 -28 -28 -21 -26 6 -26 6 7 -25 34 -34 40 -59 20 -79
-23 -23 -78 -8 -78 21 0 5 14 6 30 2 37 -8 38 4 5 35 -27 25 -33 65 -12 73 23
10 44 7 56 -6z m112 3 c21 -12 25 -50 8 -67 -9 -9 -8 -18 5 -37 20 -31 20 -36
1 -36 -8 0 -22 15 -32 33 l-18 32 -3 -33 c-5 -55 -27 -31 -30 33 -2 32 -1 64
2 71 6 17 40 18 67 4z m155 -54 c13 -33 24 -65 24 -73 0 -18 -19 -17 -26 2 -8
21 -64 19 -80 -2 -26 -37 -26 0 0 67 34 86 49 87 82 6z m295 53 c30 -15 14
-28 -29 -22 -59 8 -93 -35 -56 -71 17 -18 69 -22 79 -6 3 6 -3 10 -14 10 -12
0 -21 7 -21 15 0 10 11 15 35 15 28 0 35 -4 35 -19 0 -23 -45 -61 -71 -61 -57
0 -99 57 -77 104 18 40 77 58 119 35z m184 -14 c14 -13 25 -36 25 -50 0 -35
-42 -75 -78 -75 -45 0 -76 30 -76 75 0 70 79 101 129 50z"/>
<path d="M890 205 c0 -10 7 -15 18 -13 21 4 19 22 -2 26 -10 2 -16 -3 -16 -13z"/>
<path d="M1036 184 c-9 -22 -8 -24 9 -24 8 0 15 6 15 14 0 22 -17 28 -24 10z"/>
<path d="M1469 199 c-17 -33 3 -69 39 -69 33 0 52 16 52 45 0 29 -19 45 -52
45 -18 0 -31 -7 -39 -21z"/>
</g>
</svg>
